<?xml version="1.0"?>
<svg xmlns="http://www.w3.org/2000/svg" viewBox="0 0 512 512" width="512" height="512"><g id="Outline"><path d="M477.532,414.242,447.706,309.85l-9.257-33.922A81.479,81.479,0,0,0,360,216H313.889L304,211.056V186.265a63.885,63.885,0,0,0,14.111-26.849,31.992,31.992,0,0,0,11.59-58.058A27.06,27.06,0,0,0,328,86.282V56a40.045,40.045,0,0,0-40-40H224a40.045,40.045,0,0,0-40,40V86.282a27.061,27.061,0,0,0-1.7,15.084,32.447,32.447,0,0,0-4.934,4.014,32,32,0,0,0,16.52,54.027A63.882,63.882,0,0,0,208,186.265v24.791L198.111,216H152a81.746,81.746,0,0,0-49.354,16.691,80.644,80.644,0,0,0-29.094,43.233L64.294,309.85l-29.828,104.4A64.133,64.133,0,0,0,96.14,496h82.994A20.889,20.889,0,0,0,200,475.134V436.866A20.889,20.889,0,0,0,179.134,416H145.759l2.333-11.665A23.6,23.6,0,0,0,144,385.727V352h80v40a8,8,0,0,0,8,8h48a8,8,0,0,0,8-8V352h80v33.745a23.632,23.632,0,0,0-4.1,18.595L366.24,416H332.87A20.893,20.893,0,0,0,312,436.87v38.26a20.8,20.8,0,0,0,.6,4.87H216v16H415.86a64.137,64.137,0,0,0,61.672-81.758ZM320,117.987a27.588,27.588,0,0,0,2.333-2.187A15.945,15.945,0,0,1,320,141.839ZM192,141.835a15.977,15.977,0,0,1-3.324-25.137c.316-.314.657-.6,1-.889A27.58,27.58,0,0,0,192,117.976ZM320,232h40a65.445,65.445,0,0,1,63.013,48.137l7.118,26.084L384,317.754V256a8,8,0,0,0-8-8H320Zm-16-88a48,48,0,0,1-96,0V124.139c.423.019.845.038,1.271.038a28.79,28.79,0,0,0,3.171-.177l18.722-2.08c11.141-1.238,38.531-1.238,49.672,0L299.558,124a28.438,28.438,0,0,0,4.442.132ZM200,56a24.028,24.028,0,0,1,24-24h64a24.028,24.028,0,0,1,24,24V80H296V56a8,8,0,0,0-8-8H224a8,8,0,0,0-8,8V80H200Zm80,8V80H232V64Zm-79.994,39.262A11.351,11.351,0,0,1,197.944,96H314.056a11.5,11.5,0,0,1-12.731,12.1l-18.721-2.08c-12.432-1.381-40.776-1.381-53.208,0l-18.721,2.08A11.317,11.317,0,0,1,200.006,103.262ZM179.134,432A4.872,4.872,0,0,1,184,436.866v38.268A4.872,4.872,0,0,1,179.134,480H96.14a48.135,48.135,0,0,1-46.287-61.362l27.714-97,48.112,12.029-15.937,47.819a23.636,23.636,0,0,0-8.109,13.558L97.441,416H80v16h24a8,8,0,0,0,7.845-6.431l5.477-27.387a7.711,7.711,0,0,1,7.54-6.182,7.688,7.688,0,0,1,7.54,9.2l-4.247,21.234A8,8,0,0,0,136,432ZM136,248a8,8,0,0,0-8,8v61.754L81.869,306.221l7.118-26.085A65.308,65.308,0,0,1,152,232h40v16Zm88,88H144V264h80Zm-16-88V228.944l5.463-2.731L229.025,248Zm64,136H240V352h32Zm0-48H240V264h32Zm-8.687-88H248.687L224,213.437V199.39a63.771,63.771,0,0,0,64,0v14.047Zm19.662,0,15.562-21.787L304,228.944V248ZM288,336V264h80v72ZM449.9,465.9A47.825,47.825,0,0,1,415.86,480H332.87a4.876,4.876,0,0,1-4.87-4.87V436.87a4.876,4.876,0,0,1,4.87-4.87H376a8,8,0,0,0,7.845-9.57L379.594,401.2a7.712,7.712,0,0,1-.059-2.723A7.718,7.718,0,0,1,387.141,392a7.721,7.721,0,0,1,4.889,1.757,7.532,7.532,0,0,1,2.645,4.422l5.48,27.39A8,8,0,0,0,408,432h24V416H414.558l-4.192-20.95a23.639,23.639,0,0,0-8.12-13.6l-15.925-47.783,48.112-12.029,27.713,97A48.143,48.143,0,0,1,449.9,465.9Z"/></g></svg>
