<svg id="Capa_1" enable-background="new 0 0 511.994 511.994" height="512" viewBox="0 0 511.994 511.994" width="512" xmlns="http://www.w3.org/2000/svg"><g><path d="m501.504 25.112-5.625-13.887c-3.722-9.184-14.221-13.63-23.404-9.909l-85.657 34.699c-8.184 3.316-13.983 10.486-15.516 19.179l-56.662 321.345c-5.344 1.211-10.486 3.059-15.333 5.465l33.382-189.32c.618-3.504-.165-7.04-2.206-9.955s-5.096-4.86-8.599-5.478l-220.267-38.839c-3.501-.616-7.038.167-9.953 2.207-2.915 2.041-4.859 5.095-5.477 8.598l-19.061 108.11c-.72 4.079 2.004 7.969 6.083 8.688.441.078.879.115 1.312.115 3.571 0 6.735-2.561 7.377-6.199l18.771-106.454 59.922 10.566-13.288 75.359c-1.21 6.859 3.387 13.424 10.246 14.634l71.716 12.646c.741.13 1.483.195 2.221.195 2.568 0 5.071-.784 7.219-2.288 2.764-1.935 4.608-4.831 5.194-8.154l13.288-75.36 60.439 10.657-35.666 202.278c-.018.1-.024.199-.037.299-3.979 3.861-7.502 8.213-10.47 12.986l-209.04-36.859 13.573-76.978c.72-4.079-2.004-7.969-6.083-8.688-4.085-.719-7.969 2.005-8.688 6.084l-13.573 76.978-14.766-2.604c-4.729-.833-9.498.224-13.429 2.977-3.933 2.753-6.558 6.874-7.391 11.601l-2.602 14.754c-.834 4.728.223 9.498 2.977 13.43s6.873 6.557 11.601 7.391l119.438 21.06c.441.078.879.115 1.312.115 3.571 0 6.735-2.561 7.377-6.199.72-4.079-2.004-7.969-6.083-8.688l-119.438-21.06c-1.055-.186-1.655-.846-1.919-1.222s-.678-1.166-.492-2.221l2.602-14.755c.187-1.054.846-1.654 1.222-1.917.377-.264 1.169-.68 2.221-.492l176.829 31.18-3.634 20.608-23.968-4.226c-4.082-.717-7.969 2.005-8.688 6.084s2.004 7.969 6.083 8.688l85.677 15.107c1.873 8.978 5.554 17.571 10.973 25.31 10.505 15.002 26.223 25.016 44.259 28.196 4.012.707 8.001 1.048 11.94 1.048 32.63 0 61.633-23.444 67.49-56.666 5.068-28.743-8.656-56.518-32.303-70.717l25.251-143.208c.72-4.079-2.004-7.969-6.083-8.688-4.085-.717-7.97 2.005-8.688 6.084l-24.581 139.404c-2.977-.962-6.047-1.747-9.213-2.305-3.844-.677-7.668-1.001-11.448-1.028l37-209.842 20.609 3.634-6.506 36.897c-.72 4.079 2.004 7.969 6.083 8.688 4.084.722 7.969-2.004 8.688-6.084l22.966-130.243 72.588-29.405c9.182-3.722 13.628-14.221 9.908-23.406zm-271.965 226.387-67.053-11.823 12.804-72.612 67.052 11.823zm-7.669 162.285 42.916 7.567c-1.109 3.269-1.985 6.663-2.602 10.166-.614 3.483-.953 6.971-1.034 10.442l-42.914-7.567zm117.138-23.113c29.087 5.129 48.579 32.965 43.451 62.053-5.129 29.087-32.962 48.58-62.054 43.45-14.091-2.484-26.37-10.307-34.577-22.027-8.206-11.72-11.357-25.935-8.873-40.025 4.577-25.956 27.232-44.269 52.726-44.269 3.076-.001 6.196.266 9.327.818zm146.955-356.057-76.438 30.964c-2.395.97-4.121 3.104-4.569 5.649l-14.576 82.664-20.609-3.634 16.303-92.459c.63-3.572 3.014-6.518 6.376-7.881l85.656-34.699c1.518-.614 3.256.12 3.871 1.639l5.625 13.886c.615 1.519-.121 3.255-1.639 3.871z"/><path d="m295.854 437.453c-1.595 9.042.427 18.165 5.693 25.687 5.267 7.521 13.147 12.542 22.19 14.136 2.011.354 4.01.525 5.985.525 16.358 0 30.899-11.754 33.836-28.41 3.291-18.667-9.217-36.53-27.884-39.822-18.653-3.287-36.528 9.218-39.82 27.884zm14.772 2.605c1.655-9.388 9.851-16.013 19.072-16.013 1.112 0 2.24.097 3.373.296 10.521 1.855 17.571 11.924 15.717 22.445-.898 5.097-3.729 9.538-7.968 12.507-4.24 2.969-9.386 4.11-14.478 3.209-5.097-.898-9.539-3.729-12.507-7.968-2.968-4.238-4.108-9.379-3.209-14.476z"/><path d="m327.43 450.637.975.172c.44.078.879.115 1.312.115 3.571 0 6.735-2.561 7.377-6.199.72-4.08-2.004-7.969-6.083-8.689l-.975-.172c-4.072-.715-7.969 2.005-8.688 6.083-.721 4.081 2.002 7.97 6.082 8.69z"/><path d="m104.964 357.882c.44.078.879.115 1.312.115 3.571 0 6.735-2.561 7.377-6.199l2.014-11.417.65.869c1.474 1.972 3.729 3.012 6.015 3.012 1.562 0 3.136-.486 4.483-1.492 3.318-2.479 3.998-7.179 1.52-10.497l-11.032-14.767c-2.373-3.175-6.807-3.958-10.119-1.784l-15.417 10.103c-3.465 2.27-4.433 6.919-2.163 10.384 2.271 3.464 6.919 4.433 10.384 2.162l.909-.596-2.014 11.418c-.722 4.079 2.002 7.969 6.081 8.689z"/><path d="m157.745 367.188c.441.078.879.115 1.312.115 3.571 0 6.735-2.561 7.377-6.199l2.013-11.417.65.87c1.474 1.972 3.729 3.012 6.015 3.012 1.562 0 3.136-.486 4.483-1.492 3.318-2.479 3.998-7.179 1.52-10.497l-11.032-14.767c-2.373-3.175-6.804-3.957-10.119-1.785l-15.418 10.103c-3.465 2.271-4.433 6.919-2.163 10.384 2.271 3.465 6.919 4.432 10.384 2.163l.91-.596-2.013 11.418c-.722 4.079 2.002 7.969 6.081 8.688z"/></g></svg>