<svg id="icons" enable-background="new 0 0 64 64" height="512" viewBox="0 0 64 64" width="512" xmlns="http://www.w3.org/2000/svg"><path d="m63 6.495h-19.001c-.553 0-1 .448-1 1v5c0 .552.447 1 1 1h1.001v17.005c0 .551-.448 1-1 1-.011 0-.019.005-.029.006h-1.969v-15.006-9.003c0-.552-.447-1-1-1h-40.002c-.553 0-1 .448-1 1v9.003 30.996 9.01c0 .553.447 1 1 1h40.002c.553 0 1-.447 1-1v-8.01h1.998c.014 0 .025-.007.039-.008 9.893-.021 17.936-8.066 17.951-17.961 0-.009.005-.017.005-.026v-17.006h1.005c.553 0 1-.448 1-1v-5c0-.553-.447-1-1-1zm-19 27.011c.021 0 .038-.011.059-.012 1.627-.032 2.941-1.359 2.941-2.994v-17.005h.999v17.005c0 .001.001.002.001.003-.003 2.203-1.795 3.995-4 3.995-.011 0-.019.006-.029.006h-1.969v-.998zm6.998-20.011v17.005c0 .002.002.005.002.007-.005 3.855-3.144 6.99-7 6.99-.007 0-.013.004-.02.004h-1.979v-.998h1.999c.014 0 .025-.007.039-.008 3.29-.02 5.961-2.701 5.961-5.995 0-.001-.001-.003-.001-.005v-17zm2.999 0v17.005c0 .004.002.007.002.011-.007 5.509-4.489 9.987-9.999 9.987-.004 0-.006.002-.01.002h-1.988v-.998h1.998c.009 0 .017-.005.025-.005 4.952-.015 8.975-4.045 8.975-8.997 0-.003-.002-.006-.002-.01v-16.995zm2.999 0v17.005c0 7.166-5.83 12.995-12.996 12.995-.007 0-.013.004-.02.004h-1.979v-.999h1.999c.005 0 .009-.003.013-.003 6.611-.007 11.987-5.386 11.987-11.997 0-.005-.003-.009-.003-.015v-16.99zm-54.996-4.998h38.002v8.003 29.996h-38.002v-29.996zm0 47.009v-7.01h38.002v7.01zm57.995-25.026c0 .007-.004.013-.004.02 0 8.817-7.174 15.991-15.991 15.991-.011 0-.019.006-.029.006h-1.969v-.998h1.998c.009 0 .017-.005.025-.005 8.257-.015 14.97-6.733 14.971-14.992v-17.007h.999zm2.005-18.985h-17.001v-3h17.001z"/><path d="m8.98 39.518c.011.011.025.015.037.024 3.076 3.061 7.312 4.956 11.983 4.956s8.907-1.896 11.983-4.956c.012-.01.026-.014.037-.024s.015-.026.025-.037c3.06-3.076 4.954-7.312 4.954-11.983 0-4.669-1.895-8.904-4.952-11.979-.012-.013-.016-.029-.027-.041s-.028-.016-.041-.027c-3.075-3.058-7.31-4.952-11.979-4.952s-8.904 1.894-11.979 4.952c-.013.012-.029.015-.041.027s-.016.028-.027.041c-3.058 3.076-4.952 7.31-4.952 11.979 0 4.671 1.895 8.907 4.954 11.983.011.01.015.026.025.037zm6.021-12.02c0-1.294.416-2.49 1.115-3.471l.718.718c-.524.791-.833 1.736-.833 2.753 0 1.018.31 1.963.833 2.753l-.718.718c-.699-.981-1.115-2.177-1.115-3.471zm12 0c0 1.293-.415 2.49-1.114 3.471l-.719-.718c.524-.791.833-1.735.833-2.752 0-1.018-.31-1.963-.833-2.753l.718-.718c.699.979 1.115 2.176 1.115 3.47zm-3 0c0 1.654-1.346 3-3 3s-3-1.346-3-3 1.346-3 3-3 3 1.345 3 3zm-5.752 4.167c.79.523 1.735.833 2.752.833 1.018 0 1.963-.309 2.754-.833l.718.718c-.981.7-2.178 1.116-3.472 1.116s-2.49-.416-3.471-1.115zm5.504-8.335c-.79-.523-1.735-.833-2.752-.833-1.018 0-1.962.309-2.753.833l-.718-.718c.98-.699 2.177-1.115 3.471-1.115s2.489.416 3.471 1.115zm-7.649 10.48c1.355 1.054 3.052 1.688 4.897 1.688s3.543-.635 4.898-1.688l.713.713c-1.54 1.233-3.489 1.976-5.611 1.976s-4.071-.742-5.611-1.975zm11.209-1.415c1.054-1.355 1.688-3.052 1.688-4.897s-.635-3.543-1.688-4.898l.713-.713c1.233 1.541 1.976 3.49 1.976 5.611s-.742 4.07-1.975 5.611zm-1.415-11.209c-1.355-1.054-3.052-1.688-4.897-1.688s-3.542.634-4.897 1.688l-.714-.713c1.541-1.233 3.489-1.975 5.611-1.975s4.07.742 5.61 1.975zm-11.209 1.414c-1.054 1.355-1.688 3.052-1.688 4.897s.635 3.543 1.688 4.898l-.714.714c-1.232-1.541-1.975-3.49-1.975-5.612s.742-4.071 1.975-5.611zm-.722 13.345c1.908 1.592 4.36 2.553 7.034 2.553s5.126-.961 7.034-2.553l.707.707c-2.092 1.771-4.792 2.846-7.741 2.846s-5.649-1.074-7.741-2.846zm15.482-1.414c1.592-1.908 2.552-4.36 2.552-7.034s-.961-5.125-2.553-7.034l.707-.707c1.771 2.092 2.846 4.792 2.846 7.741s-1.074 5.649-2.845 7.741zm-1.415-15.482c-1.908-1.591-4.36-2.552-7.033-2.552-2.674 0-5.126.96-7.034 2.552l-.706-.707c2.091-1.771 4.791-2.845 7.74-2.845s5.649 1.074 7.74 2.845zm-15.481 1.415c-1.591 1.908-2.552 4.36-2.552 7.034s.961 5.125 2.552 7.034l-.707.707c-1.771-2.092-2.845-4.792-2.845-7.741s1.074-5.649 2.846-7.741zm-1.413 18.308.707-.706c2.457 2.131 5.653 3.432 9.154 3.432s6.697-1.301 9.154-3.433l.707.707c-2.64 2.312-6.085 3.726-9.861 3.726s-7.222-1.414-9.861-3.726zm21.136-1.414-.707-.707c2.132-2.457 3.432-5.653 3.432-9.154s-1.301-6.697-3.432-9.154l.707-.707c2.312 2.64 3.725 6.084 3.725 9.861 0 3.776-1.413 7.222-3.725 9.861zm-1.414-21.135-.707.707c-2.457-2.131-5.653-3.432-9.154-3.432s-6.697 1.3-9.154 3.432l-.707-.707c2.64-2.312 6.085-3.725 9.861-3.725s7.222 1.413 9.861 3.725zm-21.136 1.414.707.707c-2.131 2.458-3.432 5.654-3.432 9.154s1.3 6.697 3.432 9.154l-.707.707c-2.312-2.64-3.725-6.085-3.725-9.861 0-3.777 1.413-7.222 3.725-9.861z"/><path d="m5.024 12.498c.552 0 1-.448 1-1s-.448-1-1-1h-.01c-.552 0-.994.448-.994 1s.452 1 1.004 1z"/><path d="m37.031 12.498c.552 0 1-.448 1-1s-.448-1-1-1h-.011c-.552 0-.994.448-.994 1s.453 1 1.005 1z"/><path d="m5.024 42.518h-.01c-.552 0-.994.447-.994 1s.452 1 1.005 1c.552 0 1-.447 1-1s-.449-1-1.001-1z"/><path d="m37.031 42.518h-.011c-.552 0-.994.447-.994 1s.452 1 1.005 1c.552 0 1-.447 1-1s-.448-1-1-1z"/><path d="m37.002 49.498h-3.001-3.001c-.553 0-1 .447-1 1v3.002c0 .553.447 1 1 1h3.001 3.001c.553 0 1-.447 1-1v-3.002c0-.553-.447-1-1-1zm-5.002 2h1.001v1.002h-1.001zm4.002 1.002h-1.001v-1.002h1.001z"/></svg>