<?xml version="1.0" encoding="utf-8"?>
<!-- Generator: Adobe Illustrator 24.0.2, SVG Export Plug-In . SVG Version: 6.00 Build 0)  -->
<svg version="1.1" id="Шар_1" xmlns="http://www.w3.org/2000/svg" xmlns:xlink="http://www.w3.org/1999/xlink" x="0px" y="0px"
	 viewBox="0 0 175.9 173.5" style="enable-background:new 0 0 175.9 173.5;" xml:space="preserve">
<style type="text/css">
	.st0{fill:#FFFFFF;}
	.st1{fill:#1A1A18;}
</style>
<rect class="st0" width="175.9" height="173.5"/>
<g>
	<g>
		<g>
			<g>
				<path d="M154.3,18.9v132.9H94.8V142c0-41.6-22-63.6-63.5-63.6h-9.8V18.9H154.3 M113.9,132.1h4.4h11.4h5v-5V43.4v-0.1v-5h-5H46
					h-5v5v11.4v4.4l4.4,0.5c39.2,4.7,63.4,28.9,68,68L113.9,132.1 M159.3,13.9H16.5v69.5h14.8c38.8,0,58.5,19.7,58.5,58.6v14.8h69.5
					V13.9L159.3,13.9z M118.4,127.1C113.5,85.7,87.5,59.7,46,54.7V43.3h83.8v0.1v83.7H118.4L118.4,127.1z"/>
			</g>
			<rect x="16.5" y="100.8" class="st1" width="55.8" height="55.9"/>
		</g>
	</g>
</g>
</svg>
